<svg xmlns="http://www.w3.org/2000/svg" viewBox="0 0 512 512">
  <defs>
    <linearGradient id="bg" x1="0" y1="0" x2="1" y2="1">
      <stop offset="0" stop-color="#22083e"/>
      <stop offset="1" stop-color="#0c0c1e"/>
    </linearGradient>
    <linearGradient id="env" x1="0" y1="0" x2="1" y2="1">
      <stop offset="0" stop-color="#ff4d6d"/>
      <stop offset="1" stop-color="#e83560"/>
    </linearGradient>
  </defs>
  <rect width="512" height="512" fill="url(#bg)"/>
  <radialGradient id="glow" cx="50%" cy="40%" r="55%">
    <stop offset="0" stop-color="#3a0a5e" stop-opacity=".6"/>
    <stop offset="1" stop-color="transparent" stop-opacity="0"/>
  </radialGradient>
  <rect width="512" height="512" fill="url(#glow)"/>
  <rect x="60" y="195" width="392" height="254" rx="34" fill="url(#env)"/>
  <rect x="60" y="195" width="392" height="60" rx="34" fill="rgba(255,255,255,.12)"/>
  <path d="M60 235 L256 348 L452 235" stroke="rgba(255,255,255,.45)" stroke-width="10" fill="none" stroke-linejoin="round" stroke-linecap="round"/>
  <circle cx="340" cy="152" r="62" fill="#ffd445"/>
  <circle cx="340" cy="152" r="44" fill="#ffe96a" opacity=".5"/>
  <line x1="340" y1="72" x2="340" y2="50" stroke="#ffd445" stroke-width="14" stroke-linecap="round" opacity=".75"/>
  <line x1="340" y1="232" x2="340" y2="210" stroke="#ffd445" stroke-width="14" stroke-linecap="round" opacity=".65"/>
  <line x1="420" y1="152" x2="442" y2="152" stroke="#ffd445" stroke-width="14" stroke-linecap="round" opacity=".75"/>
  <line x1="260" y1="152" x2="238" y2="152" stroke="#ffd445" stroke-width="14" stroke-linecap="round" opacity=".65"/>
  <line x1="396" y1="96" x2="412" y2="80" stroke="#ffd445" stroke-width="14" stroke-linecap="round" opacity=".7"/>
  <line x1="284" y1="208" x2="268" y2="224" stroke="#ffd445" stroke-width="14" stroke-linecap="round" opacity=".6"/>
  <line x1="396" y1="208" x2="412" y2="224" stroke="#ffd445" stroke-width="14" stroke-linecap="round" opacity=".6"/>
  <line x1="284" y1="96" x2="268" y2="80" stroke="#ffd445" stroke-width="14" stroke-linecap="round" opacity=".65"/>
</svg>